<?xml version="1.0" standalone="no"?>
<!DOCTYPE svg PUBLIC "-//W3C//DTD SVG 20010904//EN"
        "http://www.w3.org/TR/2001/REC-SVG-20010904/DTD/svg10.dtd">
<svg version="1.0" xmlns="http://www.w3.org/2000/svg"
     width="700.000000pt" height="700.000000pt" viewBox="0 0 700.000000 700.000000"
     preserveAspectRatio="xMidYMid meet">
    <metadata>
        Created by potrace 1.11, written by Peter Selinger 2001-2013
    </metadata>
    <g transform="translate(0.000000,700.000000) scale(0.100000,-0.100000)"
       fill="#000000" stroke="none">
        <path d="M1427 6753 c-4 -3 -7 -795 -7 -1760 l0 -1753 -90 0 -90 0 0 170 0
170 -167 -2 -168 -3 -3 -166 -2 -167 -118 -4 c-189 -8 -288 -63 -350 -196
l-27 -57 0 -1275 0 -1275 26 -50 c34 -63 99 -128 158 -157 l46 -23 1267 -3
c1258 -2 1267 -2 1322 18 73 28 147 98 182 175 23 49 28 78 32 162 l5 103
1463 0 1464 0 0 3050 0 3050 -2468 0 c-1358 0 -2472 -3 -2475 -7z m4913 -443
l0 -420 -2445 0 -2445 0 0 413 c0 228 3 417 7 420 3 4 1104 7 2445 7 l2438 0
0 -420z m0 -870 l0 -420 -2442 2 -2443 3 -3 418 -2 417 2445 0 2445 0 0 -420z
m0 -870 l0 -420 -2442 2 -2443 3 -3 418 -2 417 2445 0 2445 0 0 -420z m0 -860
l0 -420 -1705 0 -1705 0 0 145 0 145 -167 -2 -168 -3 -3 -142 -3 -143 -569 0
-570 0 0 413 c0 228 3 417 7 420 3 4 1104 7 2445 7 l2438 0 0 -420z m-3750
-460 c0 -7 -195 -10 -565 -10 -370 0 -565 3 -565 10 0 7 195 10 565 10 370 0
565 -3 565 -10z m3750 -410 l0 -420 -1449 0 -1450 0 -3 283 -3 282 -27 55
c-35 71 -97 133 -167 167 -49 25 -69 28 -183 31 -70 3 -128 8 -128 13 0 5 727
9 1705 9 l1705 0 0 -420z m-4920 -620 l0 -170 -175 0 -175 0 0 -420 0 -420
175 0 175 0 0 -275 0 -275 840 0 840 0 0 -65 0 -65 -1185 0 -1185 0 0 930 0
930 345 0 345 0 0 -170z m1680 -250 l0 -420 -590 0 -590 0 0 250 0 250 -232 2
-233 3 -3 168 -2 167 825 0 825 0 0 -420z m3240 0 l0 -420 -1450 0 -1450 0 0
420 0 420 1450 0 1450 0 0 -420z m-3240 -860 l0 -420 -825 0 -825 0 2 258 3
257 233 3 232 2 0 160 0 160 590 0 590 0 0 -420z m3240 0 l0 -420 -1450 0
-1450 0 0 420 0 420 1450 0 1450 0 0 -420z"/>
    </g>
</svg>
